<?xml version="1.0" encoding="UTF-8" standalone="no"?>
<!DOCTYPE svg PUBLIC "-//W3C//DTD SVG 1.1//EN"
 "http://www.w3.org/Graphics/SVG/1.1/DTD/svg11.dtd">
<!-- Generated by graphviz version 2.38.0 (20140413.2041)
 -->
<!-- Title: G Pages: 1 -->
<svg width="390pt" height="3251pt"
 viewBox="0.00 0.00 389.84 3250.98" xmlns="http://www.w3.org/2000/svg" xmlns:xlink="http://www.w3.org/1999/xlink">
<g id="graph0" class="graph" transform="scale(1 1) rotate(0) translate(4 3246.98)">
<title>G</title>
<polygon fill="white" stroke="none" points="-4,4 -4,-3246.98 385.838,-3246.98 385.838,4 -4,4"/>
<!-- n1 -->
<g id="node1" class="node"><title>n1</title>
<ellipse fill="none" stroke="#7fffd4" cx="190.919" cy="-3209.74" rx="54.3945" ry="33.4697"/>
<text text-anchor="middle" x="190.919" y="-3219.64" font-family="Times,serif" font-size="12.00">Input</text>
<text text-anchor="middle" x="190.919" y="-3206.64" font-family="Times,serif" font-size="12.00">Storage id: 1</text>
<text text-anchor="middle" x="190.919" y="-3193.64" font-family="Times,serif" font-size="12.00">Size: 30720</text>
</g>
<!-- n2 -->
<g id="node2" class="node"><title>n2</title>
<ellipse fill="none" stroke="#c1ffc1" cx="190.919" cy="-3107.28" rx="186.853" ry="33.4697"/>
<text text-anchor="middle" x="190.919" y="-3117.18" font-family="Times,serif" font-size="12.00">nn.SpatialConvolutionMM(3 &#45;&gt; 64, 11x11, 4,4, 2,2)</text>
<text text-anchor="middle" x="190.919" y="-3104.18" font-family="Times,serif" font-size="12.00">Storage id: 2</text>
<text text-anchor="middle" x="190.919" y="-3091.18" font-family="Times,serif" font-size="12.00">Size: 31360</text>
</g>
<!-- n1&#45;&gt;n2 -->
<g id="edge1" class="edge"><title>n1&#45;&gt;n2</title>
<path fill="none" stroke="black" d="M190.919,-3176.4C190.919,-3168.25 190.919,-3159.36 190.919,-3150.79"/>
<polygon fill="black" stroke="black" points="194.419,-3150.56 190.919,-3140.56 187.419,-3150.56 194.419,-3150.56"/>
</g>
<!-- n3 -->
<g id="node3" class="node"><title>n3</title>
<ellipse fill="none" stroke="#c1ffc1" cx="190.919" cy="-3004.81" rx="54.3945" ry="33.4697"/>
<text text-anchor="middle" x="190.919" y="-3014.71" font-family="Times,serif" font-size="12.00">nn.ReLU</text>
<text text-anchor="middle" x="190.919" y="-3001.71" font-family="Times,serif" font-size="12.00">Storage id: 2</text>
<text text-anchor="middle" x="190.919" y="-2988.71" font-family="Times,serif" font-size="12.00">Size: 31360</text>
</g>
<!-- n2&#45;&gt;n3 -->
<g id="edge2" class="edge"><title>n2&#45;&gt;n3</title>
<path fill="none" stroke="black" d="M190.919,-3073.93C190.919,-3065.78 190.919,-3056.9 190.919,-3048.32"/>
<polygon fill="black" stroke="black" points="194.419,-3048.09 190.919,-3038.09 187.419,-3048.09 194.419,-3048.09"/>
</g>
<!-- n4 -->
<g id="node4" class="node"><title>n4</title>
<ellipse fill="none" stroke="#cdb79e" cx="190.919" cy="-2902.34" rx="146.242" ry="33.4697"/>
<text text-anchor="middle" x="190.919" y="-2912.24" font-family="Times,serif" font-size="12.00">nn.SpatialBatchNormalization (4D) (64)</text>
<text text-anchor="middle" x="190.919" y="-2899.24" font-family="Times,serif" font-size="12.00">Storage id: 3</text>
<text text-anchor="middle" x="190.919" y="-2886.24" font-family="Times,serif" font-size="12.00">Size: 31360</text>
</g>
<!-- n3&#45;&gt;n4 -->
<g id="edge3" class="edge"><title>n3&#45;&gt;n4</title>
<path fill="none" stroke="black" d="M190.919,-2971.47C190.919,-2963.31 190.919,-2954.43 190.919,-2945.86"/>
<polygon fill="black" stroke="black" points="194.419,-2945.62 190.919,-2935.62 187.419,-2945.62 194.419,-2945.62"/>
</g>
<!-- n5 -->
<g id="node5" class="node"><title>n5</title>
<ellipse fill="none" stroke="antiquewhite" cx="190.919" cy="-2799.87" rx="119.502" ry="33.4697"/>
<text text-anchor="middle" x="190.919" y="-2809.77" font-family="Times,serif" font-size="12.00">nn.SpatialMaxPooling(3x3, 2,2)</text>
<text text-anchor="middle" x="190.919" y="-2796.77" font-family="Times,serif" font-size="12.00">Storage id: 4</text>
<text text-anchor="middle" x="190.919" y="-2783.77" font-family="Times,serif" font-size="12.00">Size: 5760</text>
</g>
<!-- n4&#45;&gt;n5 -->
<g id="edge4" class="edge"><title>n4&#45;&gt;n5</title>
<path fill="none" stroke="black" d="M190.919,-2869C190.919,-2860.84 190.919,-2851.96 190.919,-2843.39"/>
<polygon fill="black" stroke="black" points="194.419,-2843.15 190.919,-2833.15 187.419,-2843.15 194.419,-2843.15"/>
</g>
<!-- n6 -->
<g id="node6" class="node"><title>n6</title>
<ellipse fill="none" stroke="#8deeee" cx="190.919" cy="-2697.4" rx="186.853" ry="33.4697"/>
<text text-anchor="middle" x="190.919" y="-2707.3" font-family="Times,serif" font-size="12.00">nn.SpatialConvolutionMM(64 &#45;&gt; 192, 5x5, 1,1, 2,2)</text>
<text text-anchor="middle" x="190.919" y="-2694.3" font-family="Times,serif" font-size="12.00">Storage id: 5</text>
<text text-anchor="middle" x="190.919" y="-2681.3" font-family="Times,serif" font-size="12.00">Size: 17280</text>
</g>
<!-- n5&#45;&gt;n6 -->
<g id="edge5" class="edge"><title>n5&#45;&gt;n6</title>
<path fill="none" stroke="black" d="M190.919,-2766.53C190.919,-2758.37 190.919,-2749.49 190.919,-2740.92"/>
<polygon fill="black" stroke="black" points="194.419,-2740.68 190.919,-2730.68 187.419,-2740.68 194.419,-2740.68"/>
</g>
<!-- n7 -->
<g id="node7" class="node"><title>n7</title>
<ellipse fill="none" stroke="#8deeee" cx="190.919" cy="-2594.93" rx="54.3945" ry="33.4697"/>
<text text-anchor="middle" x="190.919" y="-2604.83" font-family="Times,serif" font-size="12.00">nn.ReLU</text>
<text text-anchor="middle" x="190.919" y="-2591.83" font-family="Times,serif" font-size="12.00">Storage id: 5</text>
<text text-anchor="middle" x="190.919" y="-2578.83" font-family="Times,serif" font-size="12.00">Size: 17280</text>
</g>
<!-- n6&#45;&gt;n7 -->
<g id="edge6" class="edge"><title>n6&#45;&gt;n7</title>
<path fill="none" stroke="black" d="M190.919,-2664.06C190.919,-2655.9 190.919,-2647.02 190.919,-2638.45"/>
<polygon fill="black" stroke="black" points="194.419,-2638.22 190.919,-2628.22 187.419,-2638.22 194.419,-2638.22"/>
</g>
<!-- n8 -->
<g id="node8" class="node"><title>n8</title>
<ellipse fill="none" stroke="#fff8dc" cx="190.919" cy="-2492.47" rx="150.728" ry="33.4697"/>
<text text-anchor="middle" x="190.919" y="-2502.37" font-family="Times,serif" font-size="12.00">nn.SpatialBatchNormalization (4D) (192)</text>
<text text-anchor="middle" x="190.919" y="-2489.37" font-family="Times,serif" font-size="12.00">Storage id: 6</text>
<text text-anchor="middle" x="190.919" y="-2476.37" font-family="Times,serif" font-size="12.00">Size: 17280</text>
</g>
<!-- n7&#45;&gt;n8 -->
<g id="edge7" class="edge"><title>n7&#45;&gt;n8</title>
<path fill="none" stroke="black" d="M190.919,-2561.59C190.919,-2553.44 190.919,-2544.56 190.919,-2535.98"/>
<polygon fill="black" stroke="black" points="194.419,-2535.75 190.919,-2525.75 187.419,-2535.75 194.419,-2535.75"/>
</g>
<!-- n9 -->
<g id="node9" class="node"><title>n9</title>
<ellipse fill="none" stroke="#cdc8b1" cx="190.919" cy="-2390" rx="119.502" ry="33.4697"/>
<text text-anchor="middle" x="190.919" y="-2399.9" font-family="Times,serif" font-size="12.00">nn.SpatialMaxPooling(3x3, 2,2)</text>
<text text-anchor="middle" x="190.919" y="-2386.9" font-family="Times,serif" font-size="12.00">Storage id: 7</text>
<text text-anchor="middle" x="190.919" y="-2373.9" font-family="Times,serif" font-size="12.00">Size: 1920</text>
</g>
<!-- n8&#45;&gt;n9 -->
<g id="edge8" class="edge"><title>n8&#45;&gt;n9</title>
<path fill="none" stroke="black" d="M190.919,-2459.13C190.919,-2450.97 190.919,-2442.09 190.919,-2433.52"/>
<polygon fill="black" stroke="black" points="194.419,-2433.28 190.919,-2423.28 187.419,-2433.28 194.419,-2433.28"/>
</g>
<!-- n10 -->
<g id="node10" class="node"><title>n10</title>
<ellipse fill="none" stroke="#8ee5ee" cx="190.919" cy="-2287.53" rx="190.838" ry="33.4697"/>
<text text-anchor="middle" x="190.919" y="-2297.43" font-family="Times,serif" font-size="12.00">nn.SpatialConvolutionMM(192 &#45;&gt; 384, 3x3, 1,1, 1,1)</text>
<text text-anchor="middle" x="190.919" y="-2284.43" font-family="Times,serif" font-size="12.00">Storage id: 8</text>
<text text-anchor="middle" x="190.919" y="-2271.43" font-family="Times,serif" font-size="12.00">Size: 3840</text>
</g>
<!-- n9&#45;&gt;n10 -->
<g id="edge9" class="edge"><title>n9&#45;&gt;n10</title>
<path fill="none" stroke="black" d="M190.919,-2356.66C190.919,-2348.5 190.919,-2339.62 190.919,-2331.05"/>
<polygon fill="black" stroke="black" points="194.419,-2330.81 190.919,-2320.81 187.419,-2330.81 194.419,-2330.81"/>
</g>
<!-- n11 -->
<g id="node11" class="node"><title>n11</title>
<ellipse fill="none" stroke="#8ee5ee" cx="190.919" cy="-2185.06" rx="54.3945" ry="33.4697"/>
<text text-anchor="middle" x="190.919" y="-2194.96" font-family="Times,serif" font-size="12.00">nn.ReLU</text>
<text text-anchor="middle" x="190.919" y="-2181.96" font-family="Times,serif" font-size="12.00">Storage id: 8</text>
<text text-anchor="middle" x="190.919" y="-2168.96" font-family="Times,serif" font-size="12.00">Size: 3840</text>
</g>
<!-- n10&#45;&gt;n11 -->
<g id="edge10" class="edge"><title>n10&#45;&gt;n11</title>
<path fill="none" stroke="black" d="M190.919,-2254.19C190.919,-2246.03 190.919,-2237.15 190.919,-2228.58"/>
<polygon fill="black" stroke="black" points="194.419,-2228.34 190.919,-2218.34 187.419,-2228.34 194.419,-2228.34"/>
</g>
<!-- n12 -->
<g id="node12" class="node"><title>n12</title>
<ellipse fill="none" stroke="black" cx="190.919" cy="-2082.59" rx="150.728" ry="33.4697"/>
<text text-anchor="middle" x="190.919" y="-2092.49" font-family="Times,serif" font-size="12.00">nn.SpatialBatchNormalization (4D) (384)</text>
<text text-anchor="middle" x="190.919" y="-2079.49" font-family="Times,serif" font-size="12.00">Storage id: 9</text>
<text text-anchor="middle" x="190.919" y="-2066.49" font-family="Times,serif" font-size="12.00">Size: 3840</text>
</g>
<!-- n11&#45;&gt;n12 -->
<g id="edge11" class="edge"><title>n11&#45;&gt;n12</title>
<path fill="none" stroke="black" d="M190.919,-2151.72C190.919,-2143.56 190.919,-2134.68 190.919,-2126.11"/>
<polygon fill="black" stroke="black" points="194.419,-2125.88 190.919,-2115.88 187.419,-2125.88 194.419,-2125.88"/>
</g>
<!-- n13 -->
<g id="node13" class="node"><title>n13</title>
<ellipse fill="none" stroke="#458b00" cx="190.919" cy="-1980.13" rx="190.838" ry="33.4697"/>
<text text-anchor="middle" x="190.919" y="-1990.03" font-family="Times,serif" font-size="12.00">nn.SpatialConvolutionMM(384 &#45;&gt; 256, 3x3, 1,1, 1,1)</text>
<text text-anchor="middle" x="190.919" y="-1977.03" font-family="Times,serif" font-size="12.00">Storage id: 10</text>
<text text-anchor="middle" x="190.919" y="-1964.03" font-family="Times,serif" font-size="12.00">Size: 2560</text>
</g>
<!-- n12&#45;&gt;n13 -->
<g id="edge12" class="edge"><title>n12&#45;&gt;n13</title>
<path fill="none" stroke="black" d="M190.919,-2049.25C190.919,-2041.1 190.919,-2032.22 190.919,-2023.64"/>
<polygon fill="black" stroke="black" points="194.419,-2023.41 190.919,-2013.41 187.419,-2023.41 194.419,-2023.41"/>
</g>
<!-- n14 -->
<g id="node14" class="node"><title>n14</title>
<ellipse fill="none" stroke="#458b00" cx="190.919" cy="-1877.66" rx="58.8803" ry="33.4697"/>
<text text-anchor="middle" x="190.919" y="-1887.56" font-family="Times,serif" font-size="12.00">nn.ReLU</text>
<text text-anchor="middle" x="190.919" y="-1874.56" font-family="Times,serif" font-size="12.00">Storage id: 10</text>
<text text-anchor="middle" x="190.919" y="-1861.56" font-family="Times,serif" font-size="12.00">Size: 2560</text>
</g>
<!-- n13&#45;&gt;n14 -->
<g id="edge13" class="edge"><title>n13&#45;&gt;n14</title>
<path fill="none" stroke="black" d="M190.919,-1946.78C190.919,-1938.63 190.919,-1929.75 190.919,-1921.18"/>
<polygon fill="black" stroke="black" points="194.419,-1920.94 190.919,-1910.94 187.419,-1920.94 194.419,-1920.94"/>
</g>
<!-- n15 -->
<g id="node15" class="node"><title>n15</title>
<ellipse fill="none" stroke="ghostwhite" cx="190.919" cy="-1775.19" rx="150.728" ry="33.4697"/>
<text text-anchor="middle" x="190.919" y="-1785.09" font-family="Times,serif" font-size="12.00">nn.SpatialBatchNormalization (4D) (256)</text>
<text text-anchor="middle" x="190.919" y="-1772.09" font-family="Times,serif" font-size="12.00">Storage id: 11</text>
<text text-anchor="middle" x="190.919" y="-1759.09" font-family="Times,serif" font-size="12.00">Size: 2560</text>
</g>
<!-- n14&#45;&gt;n15 -->
<g id="edge14" class="edge"><title>n14&#45;&gt;n15</title>
<path fill="none" stroke="black" d="M190.919,-1844.32C190.919,-1836.16 190.919,-1827.28 190.919,-1818.71"/>
<polygon fill="black" stroke="black" points="194.419,-1818.47 190.919,-1808.47 187.419,-1818.47 194.419,-1818.47"/>
</g>
<!-- n16 -->
<g id="node16" class="node"><title>n16</title>
<ellipse fill="none" stroke="#8ee5ee" cx="190.919" cy="-1672.72" rx="190.838" ry="33.4697"/>
<text text-anchor="middle" x="190.919" y="-1682.62" font-family="Times,serif" font-size="12.00">nn.SpatialConvolutionMM(256 &#45;&gt; 256, 3x3, 1,1, 1,1)</text>
<text text-anchor="middle" x="190.919" y="-1669.62" font-family="Times,serif" font-size="12.00">Storage id: 12</text>
<text text-anchor="middle" x="190.919" y="-1656.62" font-family="Times,serif" font-size="12.00">Size: 2560</text>
</g>
<!-- n15&#45;&gt;n16 -->
<g id="edge15" class="edge"><title>n15&#45;&gt;n16</title>
<path fill="none" stroke="black" d="M190.919,-1741.85C190.919,-1733.69 190.919,-1724.81 190.919,-1716.24"/>
<polygon fill="black" stroke="black" points="194.419,-1716 190.919,-1706 187.419,-1716 194.419,-1716"/>
</g>
<!-- n17 -->
<g id="node17" class="node"><title>n17</title>
<ellipse fill="none" stroke="#8ee5ee" cx="190.919" cy="-1570.25" rx="58.8803" ry="33.4697"/>
<text text-anchor="middle" x="190.919" y="-1580.15" font-family="Times,serif" font-size="12.00">nn.ReLU</text>
<text text-anchor="middle" x="190.919" y="-1567.15" font-family="Times,serif" font-size="12.00">Storage id: 12</text>
<text text-anchor="middle" x="190.919" y="-1554.15" font-family="Times,serif" font-size="12.00">Size: 2560</text>
</g>
<!-- n16&#45;&gt;n17 -->
<g id="edge16" class="edge"><title>n16&#45;&gt;n17</title>
<path fill="none" stroke="black" d="M190.919,-1639.38C190.919,-1631.22 190.919,-1622.34 190.919,-1613.77"/>
<polygon fill="black" stroke="black" points="194.419,-1613.54 190.919,-1603.54 187.419,-1613.54 194.419,-1613.54"/>
</g>
<!-- n18 -->
<g id="node18" class="node"><title>n18</title>
<ellipse fill="none" stroke="goldenrod" cx="190.919" cy="-1467.79" rx="150.728" ry="33.4697"/>
<text text-anchor="middle" x="190.919" y="-1477.69" font-family="Times,serif" font-size="12.00">nn.SpatialBatchNormalization (4D) (256)</text>
<text text-anchor="middle" x="190.919" y="-1464.69" font-family="Times,serif" font-size="12.00">Storage id: 13</text>
<text text-anchor="middle" x="190.919" y="-1451.69" font-family="Times,serif" font-size="12.00">Size: 2560</text>
</g>
<!-- n17&#45;&gt;n18 -->
<g id="edge17" class="edge"><title>n17&#45;&gt;n18</title>
<path fill="none" stroke="black" d="M190.919,-1536.91C190.919,-1528.76 190.919,-1519.88 190.919,-1511.3"/>
<polygon fill="black" stroke="black" points="194.419,-1511.07 190.919,-1501.07 187.419,-1511.07 194.419,-1511.07"/>
</g>
<!-- n19 -->
<g id="node19" class="node"><title>n19</title>
<ellipse fill="none" stroke="#9a32cd" cx="190.919" cy="-1365.32" rx="119.502" ry="33.4697"/>
<text text-anchor="middle" x="190.919" y="-1375.22" font-family="Times,serif" font-size="12.00">nn.SpatialMaxPooling(1x1, 1,1)</text>
<text text-anchor="middle" x="190.919" y="-1362.22" font-family="Times,serif" font-size="12.00">Storage id: 14</text>
<text text-anchor="middle" x="190.919" y="-1349.22" font-family="Times,serif" font-size="12.00">Size: 2560</text>
</g>
<!-- n18&#45;&gt;n19 -->
<g id="edge18" class="edge"><title>n18&#45;&gt;n19</title>
<path fill="none" stroke="black" d="M190.919,-1434.44C190.919,-1426.29 190.919,-1417.41 190.919,-1408.84"/>
<polygon fill="black" stroke="black" points="194.419,-1408.6 190.919,-1398.6 187.419,-1408.6 194.419,-1408.6"/>
</g>
<!-- n20 -->
<g id="node20" class="node"><title>n20</title>
<ellipse fill="none" stroke="#9a32cd" cx="190.919" cy="-1262.85" rx="58.8803" ry="33.4697"/>
<text text-anchor="middle" x="190.919" y="-1272.75" font-family="Times,serif" font-size="12.00">nn.View(256)</text>
<text text-anchor="middle" x="190.919" y="-1259.75" font-family="Times,serif" font-size="12.00">Storage id: 14</text>
<text text-anchor="middle" x="190.919" y="-1246.75" font-family="Times,serif" font-size="12.00">Size: 2560</text>
</g>
<!-- n19&#45;&gt;n20 -->
<g id="edge19" class="edge"><title>n19&#45;&gt;n20</title>
<path fill="none" stroke="black" d="M190.919,-1331.98C190.919,-1323.82 190.919,-1314.94 190.919,-1306.37"/>
<polygon fill="black" stroke="black" points="194.419,-1306.13 190.919,-1296.13 187.419,-1306.13 194.419,-1306.13"/>
</g>
<!-- n21 -->
<g id="node21" class="node"><title>n21</title>
<ellipse fill="none" stroke="#9bcd9b" cx="190.919" cy="-1160.38" rx="87.8629" ry="33.4697"/>
<text text-anchor="middle" x="190.919" y="-1170.28" font-family="Times,serif" font-size="12.00">nn.Dropout(0.500000)</text>
<text text-anchor="middle" x="190.919" y="-1157.28" font-family="Times,serif" font-size="12.00">Storage id: 15</text>
<text text-anchor="middle" x="190.919" y="-1144.28" font-family="Times,serif" font-size="12.00">Size: 2560</text>
</g>
<!-- n20&#45;&gt;n21 -->
<g id="edge20" class="edge"><title>n20&#45;&gt;n21</title>
<path fill="none" stroke="black" d="M190.919,-1229.51C190.919,-1221.35 190.919,-1212.47 190.919,-1203.9"/>
<polygon fill="black" stroke="black" points="194.419,-1203.66 190.919,-1193.66 187.419,-1203.66 194.419,-1203.66"/>
</g>
<!-- n22 -->
<g id="node22" class="node"><title>n22</title>
<ellipse fill="none" stroke="#ee2c2c" cx="190.919" cy="-1057.91" rx="90.5193" ry="33.4697"/>
<text text-anchor="middle" x="190.919" y="-1067.81" font-family="Times,serif" font-size="12.00">nn.Linear(256 &#45;&gt; 4096)</text>
<text text-anchor="middle" x="190.919" y="-1054.81" font-family="Times,serif" font-size="12.00">Storage id: 16</text>
<text text-anchor="middle" x="190.919" y="-1041.81" font-family="Times,serif" font-size="12.00">Size: 40960</text>
</g>
<!-- n21&#45;&gt;n22 -->
<g id="edge21" class="edge"><title>n21&#45;&gt;n22</title>
<path fill="none" stroke="black" d="M190.919,-1127.04C190.919,-1118.88 190.919,-1110 190.919,-1101.43"/>
<polygon fill="black" stroke="black" points="194.419,-1101.2 190.919,-1091.2 187.419,-1101.2 194.419,-1101.2"/>
</g>
<!-- n23 -->
<g id="node23" class="node"><title>n23</title>
<ellipse fill="none" stroke="#ee2c2c" cx="190.919" cy="-955.446" rx="58.8803" ry="33.4697"/>
<text text-anchor="middle" x="190.919" y="-965.346" font-family="Times,serif" font-size="12.00">nn.ReLU</text>
<text text-anchor="middle" x="190.919" y="-952.346" font-family="Times,serif" font-size="12.00">Storage id: 16</text>
<text text-anchor="middle" x="190.919" y="-939.346" font-family="Times,serif" font-size="12.00">Size: 40960</text>
</g>
<!-- n22&#45;&gt;n23 -->
<g id="edge22" class="edge"><title>n22&#45;&gt;n23</title>
<path fill="none" stroke="black" d="M190.919,-1024.57C190.919,-1016.42 190.919,-1007.54 190.919,-998.963"/>
<polygon fill="black" stroke="black" points="194.419,-998.727 190.919,-988.727 187.419,-998.728 194.419,-998.727"/>
</g>
<!-- n24 -->
<g id="node24" class="node"><title>n24</title>
<ellipse fill="none" stroke="darkorchid" cx="190.919" cy="-852.978" rx="132.458" ry="33.4697"/>
<text text-anchor="middle" x="190.919" y="-862.878" font-family="Times,serif" font-size="12.00">nn.BatchNormalization (2D) (4096)</text>
<text text-anchor="middle" x="190.919" y="-849.878" font-family="Times,serif" font-size="12.00">Storage id: 17</text>
<text text-anchor="middle" x="190.919" y="-836.878" font-family="Times,serif" font-size="12.00">Size: 40960</text>
</g>
<!-- n23&#45;&gt;n24 -->
<g id="edge23" class="edge"><title>n23&#45;&gt;n24</title>
<path fill="none" stroke="black" d="M190.919,-922.105C190.919,-913.948 190.919,-905.068 190.919,-896.495"/>
<polygon fill="black" stroke="black" points="194.419,-896.259 190.919,-886.259 187.419,-896.259 194.419,-896.259"/>
</g>
<!-- n25 -->
<g id="node25" class="node"><title>n25</title>
<ellipse fill="none" stroke="#00eeee" cx="190.919" cy="-750.51" rx="58.8803" ry="33.4697"/>
<text text-anchor="middle" x="190.919" y="-760.41" font-family="Times,serif" font-size="12.00">nn.Threshold</text>
<text text-anchor="middle" x="190.919" y="-747.41" font-family="Times,serif" font-size="12.00">Storage id: 18</text>
<text text-anchor="middle" x="190.919" y="-734.41" font-family="Times,serif" font-size="12.00">Size: 40960</text>
</g>
<!-- n24&#45;&gt;n25 -->
<g id="edge24" class="edge"><title>n24&#45;&gt;n25</title>
<path fill="none" stroke="black" d="M190.919,-819.637C190.919,-811.48 190.919,-802.6 190.919,-794.027"/>
<polygon fill="black" stroke="black" points="194.419,-793.791 190.919,-783.791 187.419,-793.791 194.419,-793.791"/>
</g>
<!-- n26 -->
<g id="node26" class="node"><title>n26</title>
<ellipse fill="none" stroke="beige" cx="190.919" cy="-648.042" rx="87.8629" ry="33.4697"/>
<text text-anchor="middle" x="190.919" y="-657.942" font-family="Times,serif" font-size="12.00">nn.Dropout(0.500000)</text>
<text text-anchor="middle" x="190.919" y="-644.942" font-family="Times,serif" font-size="12.00">Storage id: 19</text>
<text text-anchor="middle" x="190.919" y="-631.942" font-family="Times,serif" font-size="12.00">Size: 40960</text>
</g>
<!-- n25&#45;&gt;n26 -->
<g id="edge25" class="edge"><title>n25&#45;&gt;n26</title>
<path fill="none" stroke="black" d="M190.919,-717.169C190.919,-709.012 190.919,-700.132 190.919,-691.559"/>
<polygon fill="black" stroke="black" points="194.419,-691.323 190.919,-681.323 187.419,-691.323 194.419,-691.323"/>
</g>
<!-- n27 -->
<g id="node27" class="node"><title>n27</title>
<ellipse fill="none" stroke="#68228b" cx="190.919" cy="-545.574" rx="94.5053" ry="33.4697"/>
<text text-anchor="middle" x="190.919" y="-555.474" font-family="Times,serif" font-size="12.00">nn.Linear(4096 &#45;&gt; 4096)</text>
<text text-anchor="middle" x="190.919" y="-542.474" font-family="Times,serif" font-size="12.00">Storage id: 20</text>
<text text-anchor="middle" x="190.919" y="-529.474" font-family="Times,serif" font-size="12.00">Size: 40960</text>
</g>
<!-- n26&#45;&gt;n27 -->
<g id="edge26" class="edge"><title>n26&#45;&gt;n27</title>
<path fill="none" stroke="black" d="M190.919,-614.701C190.919,-606.544 190.919,-597.664 190.919,-589.091"/>
<polygon fill="black" stroke="black" points="194.419,-588.855 190.919,-578.855 187.419,-588.855 194.419,-588.855"/>
</g>
<!-- n28 -->
<g id="node28" class="node"><title>n28</title>
<ellipse fill="none" stroke="#68228b" cx="190.919" cy="-443.106" rx="58.8803" ry="33.4697"/>
<text text-anchor="middle" x="190.919" y="-453.006" font-family="Times,serif" font-size="12.00">nn.ReLU</text>
<text text-anchor="middle" x="190.919" y="-440.006" font-family="Times,serif" font-size="12.00">Storage id: 20</text>
<text text-anchor="middle" x="190.919" y="-427.006" font-family="Times,serif" font-size="12.00">Size: 40960</text>
</g>
<!-- n27&#45;&gt;n28 -->
<g id="edge27" class="edge"><title>n27&#45;&gt;n28</title>
<path fill="none" stroke="black" d="M190.919,-512.232C190.919,-504.076 190.919,-495.196 190.919,-486.623"/>
<polygon fill="black" stroke="black" points="194.419,-486.387 190.919,-476.387 187.419,-486.387 194.419,-486.387"/>
</g>
<!-- n29 -->
<g id="node29" class="node"><title>n29</title>
<ellipse fill="none" stroke="dodgerblue" cx="190.919" cy="-340.638" rx="132.458" ry="33.4697"/>
<text text-anchor="middle" x="190.919" y="-350.538" font-family="Times,serif" font-size="12.00">nn.BatchNormalization (2D) (4096)</text>
<text text-anchor="middle" x="190.919" y="-337.538" font-family="Times,serif" font-size="12.00">Storage id: 21</text>
<text text-anchor="middle" x="190.919" y="-324.538" font-family="Times,serif" font-size="12.00">Size: 40960</text>
</g>
<!-- n28&#45;&gt;n29 -->
<g id="edge28" class="edge"><title>n28&#45;&gt;n29</title>
<path fill="none" stroke="black" d="M190.919,-409.764C190.919,-401.608 190.919,-392.728 190.919,-384.155"/>
<polygon fill="black" stroke="black" points="194.419,-383.919 190.919,-373.919 187.419,-383.919 194.419,-383.919"/>
</g>
<!-- n30 -->
<g id="node30" class="node"><title>n30</title>
<ellipse fill="none" stroke="brown" cx="190.919" cy="-238.17" rx="58.8803" ry="33.4697"/>
<text text-anchor="middle" x="190.919" y="-248.07" font-family="Times,serif" font-size="12.00">nn.Threshold</text>
<text text-anchor="middle" x="190.919" y="-235.07" font-family="Times,serif" font-size="12.00">Storage id: 22</text>
<text text-anchor="middle" x="190.919" y="-222.07" font-family="Times,serif" font-size="12.00">Size: 40960</text>
</g>
<!-- n29&#45;&gt;n30 -->
<g id="edge29" class="edge"><title>n29&#45;&gt;n30</title>
<path fill="none" stroke="black" d="M190.919,-307.296C190.919,-299.14 190.919,-290.26 190.919,-281.687"/>
<polygon fill="black" stroke="black" points="194.419,-281.451 190.919,-271.451 187.419,-281.451 194.419,-281.451"/>
</g>
<!-- n31 -->
<g id="node31" class="node"><title>n31</title>
<ellipse fill="none" stroke="#8b7500" cx="190.919" cy="-135.702" rx="90.5193" ry="33.4697"/>
<text text-anchor="middle" x="190.919" y="-145.602" font-family="Times,serif" font-size="12.00">nn.Linear(4096 &#45;&gt; 128)</text>
<text text-anchor="middle" x="190.919" y="-132.602" font-family="Times,serif" font-size="12.00">Storage id: 23</text>
<text text-anchor="middle" x="190.919" y="-119.602" font-family="Times,serif" font-size="12.00">Size: 1280</text>
</g>
<!-- n30&#45;&gt;n31 -->
<g id="edge30" class="edge"><title>n30&#45;&gt;n31</title>
<path fill="none" stroke="black" d="M190.919,-204.828C190.919,-196.672 190.919,-187.792 190.919,-179.219"/>
<polygon fill="black" stroke="black" points="194.419,-178.983 190.919,-168.983 187.419,-178.983 194.419,-178.983"/>
</g>
<!-- n32 -->
<g id="node32" class="node"><title>n32</title>
<ellipse fill="none" stroke="#cdb79e" cx="190.919" cy="-33.234" rx="67.3507" ry="33.4697"/>
<text text-anchor="middle" x="190.919" y="-43.134" font-family="Times,serif" font-size="12.00">nn.Normalize(2)</text>
<text text-anchor="middle" x="190.919" y="-30.134" font-family="Times,serif" font-size="12.00">Storage id: 24</text>
<text text-anchor="middle" x="190.919" y="-17.134" font-family="Times,serif" font-size="12.00">Size: 1280</text>
</g>
<!-- n31&#45;&gt;n32 -->
<g id="edge31" class="edge"><title>n31&#45;&gt;n32</title>
<path fill="none" stroke="black" d="M190.919,-102.36C190.919,-94.204 190.919,-85.3237 190.919,-76.7507"/>
<polygon fill="black" stroke="black" points="194.419,-76.5151 190.919,-66.5152 187.419,-76.5152 194.419,-76.5151"/>
</g>
</g>
</svg>
